<svg width="40" height="40" viewBox="0 0 40 40" fill="none" xmlns="http://www.w3.org/2000/svg">
<g clip-path="url(#clip0_1_4)">
<rect x="4" y="4" width="32" height="32" rx="2" fill="#ECE1D7"/>
<path d="M27.1341 32.32C26.6221 32.32 26.1848 32.2453 25.8221 32.096C25.4808 31.9467 25.1715 31.68 24.8941 31.296C24.6168 30.912 24.3395 30.3893 24.0621 29.728C23.8061 29.0667 23.5075 28.224 23.1661 27.2L18.9741 14.816C18.7181 14.0693 18.4835 13.4613 18.2701 12.992C18.0568 12.5227 17.8221 12.16 17.5661 11.904C17.3101 11.6267 16.9795 11.4347 16.5741 11.328C16.1901 11.2 15.6888 11.1253 15.0701 11.104C14.4515 11.0827 13.6728 11.072 12.7341 11.072C12.7555 10.5813 12.8301 10.0587 12.9581 9.504C13.1075 8.928 13.4061 8.43733 13.8541 8.032C14.3021 7.60533 14.9741 7.392 15.8701 7.392C16.6168 7.392 17.2568 7.552 17.7901 7.872C18.3235 8.17067 18.7928 8.61867 19.1981 9.216C19.6035 9.81333 19.9768 10.5493 20.3181 11.424C20.6808 12.2773 21.0541 13.2587 21.4381 14.368L25.7581 26.816C25.9501 27.392 26.1315 27.872 26.3021 28.256C26.4728 28.6187 26.6328 28.9067 26.7821 29.12C26.9528 29.3333 27.1128 29.4933 27.2621 29.6C27.4328 29.6853 27.6035 29.728 27.7741 29.728C28.0088 29.728 28.2435 29.696 28.4781 29.632C28.7128 29.5467 28.9688 29.4187 29.2461 29.248L30.0781 31.2C29.5235 31.5627 28.9901 31.84 28.4781 32.032C27.9875 32.224 27.5395 32.32 27.1341 32.32ZM11.5821 32L19.6141 14.496L21.4381 21.6H21.0861L16.7021 32H11.5821Z" fill="#292522"/>
</g>
<rect x="4.5" y="4.5" width="31" height="31" rx="1.5" stroke="#E49B5D"/>
<defs>
<clipPath id="clip0_1_4">
<rect x="4" y="4" width="32" height="32" rx="2" fill="white"/>
</clipPath>
</defs>
</svg>
